<svg width="16" height="16" viewBox="0 0 18 18" fill="none" xmlns="http://www.w3.org/2000/svg">
<path id="Vector (Stroke)" fill-rule="evenodd" clip-rule="evenodd" d="M8.10003 1.8C7.60297 1.8 7.20002 2.20294 7.20002 2.7V3.6H10.8V2.7C10.8 2.20293 10.3971 1.8 9.90003 1.8H8.10003ZM12.6 3.6V2.7C12.6 1.20884 11.3912 0 9.90003 0H8.10003C6.60886 0 5.40002 1.20883 5.40002 2.7V3.6H1.80002C1.30297 3.6 0.900024 4.00294 0.900024 4.5C0.900024 4.99706 1.30297 5.4 1.80002 5.4H2.70002V14.4C2.70002 16.3883 4.31181 18 6.30002 18H11.7C13.6883 18 15.3 16.3883 15.3 14.4V5.4H16.2C16.6971 5.4 17.1 4.99706 17.1 4.5C17.1 4.00294 16.6971 3.6 16.2 3.6H12.6ZM13.5 5.4H4.50002V14.4C4.50002 15.3941 5.30591 16.2 6.30002 16.2H11.7C12.6942 16.2 13.5 15.3942 13.5 14.4V5.4ZM7.20003 7.2C7.69708 7.2 8.10003 7.60294 8.10003 8.1V13.5C8.10003 13.9971 7.69708 14.4 7.20003 14.4C6.70297 14.4 6.30003 13.9971 6.30003 13.5V8.1C6.30003 7.60294 6.70297 7.2 7.20003 7.2ZM10.8 7.2C11.2971 7.2 11.7 7.60294 11.7 8.1V13.5C11.7 13.9971 11.2971 14.4 10.8 14.4C10.303 14.4 9.90003 13.9971 9.90003 13.5V8.1C9.90003 7.60294 10.303 7.2 10.8 7.2Z" fill="white"/>
</svg>
