<svg width="44" height="44" viewBox="0 0 44 44" fill="none" xmlns="http://www.w3.org/2000/svg">
<g id="Eliminar">
<circle id="Ellipse 1" cx="22" cy="22" r="22" fill="#EFE8FF"/>
<path id="Vector (Stroke)" fill-rule="evenodd" clip-rule="evenodd" d="M21.1 14.8C20.6029 14.8 20.2 15.2029 20.2 15.7V16.6H23.8V15.7C23.8 15.2029 23.3971 14.8 22.9 14.8H21.1ZM25.6 16.6V15.7C25.6 14.2088 24.3912 13 22.9 13H21.1C19.6088 13 18.4 14.2088 18.4 15.7V16.6H14.8C14.3029 16.6 13.9 17.0029 13.9 17.5C13.9 17.9971 14.3029 18.4 14.8 18.4H15.7V27.4C15.7 29.3883 17.3118 31 19.3 31H24.7C26.6883 31 28.3 29.3883 28.3 27.4V18.4H29.2C29.6971 18.4 30.1 17.9971 30.1 17.5C30.1 17.0029 29.6971 16.6 29.2 16.6H25.6ZM26.5 18.4H17.5V27.4C17.5 28.3941 18.3059 29.2 19.3 29.2H24.7C25.6941 29.2 26.5 28.3942 26.5 27.4V18.4ZM20.2 20.2C20.6971 20.2 21.1 20.6029 21.1 21.1V26.5C21.1 26.9971 20.6971 27.4 20.2 27.4C19.7029 27.4 19.3 26.9971 19.3 26.5V21.1C19.3 20.6029 19.7029 20.2 20.2 20.2ZM23.8 20.2C24.2971 20.2 24.7 20.6029 24.7 21.1V26.5C24.7 26.9971 24.2971 27.4 23.8 27.4C23.3029 27.4 22.9 26.9971 22.9 26.5V21.1C22.9 20.6029 23.3029 20.2 23.8 20.2Z" fill="#9169EE"/>
</g>
</svg>
