<svg width="44" height="45" viewBox="0 0 44 45" fill="none" xmlns="http://www.w3.org/2000/svg">
<g id="Editar">
<circle id="Ellipse 1" cx="22" cy="22.5" r="22" fill="#EFE8FF"/>
<path id="Vector (Stroke)" fill-rule="evenodd" clip-rule="evenodd" d="M28.8929 14.1171L30.3828 15.607C31.2055 16.4298 31.2056 17.7639 30.3828 18.5867L18.9743 29.9954C18.5331 30.4366 17.9712 30.7373 17.3593 30.8596L14.2602 31.4795C13.9148 31.5486 13.5577 31.4405 13.3086 31.1914C13.0596 30.9424 12.9515 30.5853 13.0205 30.2399L13.6404 27.1407C13.7627 26.5288 14.0635 25.9669 14.5047 25.5257L20.2089 19.8214L25.9131 14.1171C26.7359 13.2943 28.0701 13.2943 28.8929 14.1171ZM27.403 15.607L25.9131 17.0969L27.403 18.5867L28.8929 17.0969M25.9131 20.0766L24.4233 18.5868L15.9945 27.0156C15.8475 27.1626 15.7472 27.3499 15.7065 27.5539L15.3965 29.1035L16.9462 28.7935C17.1501 28.7528 17.3374 28.6526 17.4844 28.5055L25.9131 20.0766ZM28.8929 17.0969L27.403 15.607L28.8929 17.0969Z" fill="#9169EE"/>
</g>
</svg>
