<svg width="16" height="16" viewBox="0 0 18 18" fill="none" xmlns="http://www.w3.org/2000/svg">
<path id="Vector (Stroke)" fill-rule="evenodd" clip-rule="evenodd" d="M15.893 0.617139L17.3828 2.10698C18.2056 2.92982 18.2056 4.26388 17.3828 5.08671L5.97436 16.4954C5.53317 16.9366 4.97124 17.2373 4.35938 17.3596L1.26027 17.9795C0.914864 18.0486 0.557787 17.9405 0.30871 17.6914C0.0596334 17.4424 -0.0484829 17.0853 0.0205968 16.7399L0.640419 13.6407C0.762781 13.0288 1.06352 12.4669 1.50473 12.0257L7.20896 6.32141L12.9132 0.617139C13.736 -0.205713 15.0702 -0.205713 15.893 0.617139ZM14.4031 2.10698L12.9132 3.59687L14.4031 5.08674L15.8929 3.59687M12.9132 6.57663L11.4233 5.08675L2.99461 13.5156C2.84754 13.6626 2.7473 13.8499 2.70651 14.0539L2.39659 15.6035L3.94624 15.2935C4.15014 15.2528 4.33742 15.1526 4.48448 15.0055L12.9132 6.57663ZM15.8929 3.59687L14.4031 2.10698Z" fill="white"/>
</svg>
